<svg id="visual" viewBox="0 0 900 600" width="900" height="600" xmlns="http://www.w3.org/2000/svg" xmlns:xlink="http://www.w3.org/1999/xlink" version="1.1"><g stroke-width="1" stroke-linejoin="bevel"><path d="M443.1 353L386.1 426L452.9 384Z" fill="#2b6ad0" stroke="#2b6ad0"></path><path d="M443.1 353L374.1 337L386.1 426Z" fill="#003280" stroke="#003280"></path><path d="M374.1 337L311.3 403L386.1 426Z" fill="#1f33bd" stroke="#1f33bd"></path><path d="M443.1 353L366.3 280L374.1 337Z" fill="#0934aa" stroke="#0934aa"></path><path d="M374.1 337L281.5 380L311.3 403Z" fill="#002d69" stroke="#002d69"></path><path d="M457.9 515L518.9 422L452.9 384Z" fill="#4d26e2" stroke="#4d26e2"></path><path d="M452.9 384L524.9 315L443.1 353Z" fill="#003495" stroke="#003495"></path><path d="M443.1 353L376.1 259L366.3 280Z" fill="#0934aa" stroke="#0934aa"></path><path d="M311.3 403L331.3 481L386.1 426Z" fill="#0934aa" stroke="#0934aa"></path><path d="M386.1 426L457.9 515L452.9 384Z" fill="#0a1824" stroke="#0a1824"></path><path d="M366.3 280L281.5 380L374.1 337Z" fill="#2b6ad0" stroke="#2b6ad0"></path><path d="M311.3 403L290.3 510L331.3 481Z" fill="#002751" stroke="#002751"></path><path d="M524.9 315L376.1 259L443.1 353Z" fill="#002751" stroke="#002751"></path><path d="M366.3 280L291.3 237L281.5 380Z" fill="#1f33bd" stroke="#1f33bd"></path><path d="M518.9 422L524.9 315L452.9 384Z" fill="#003495" stroke="#003495"></path><path d="M423.1 528L457.9 515L386.1 426Z" fill="#1f33bd" stroke="#1f33bd"></path><path d="M331.3 481L423.1 528L386.1 426Z" fill="#0934aa" stroke="#0934aa"></path><path d="M219.5 476L290.3 510L311.3 403Z" fill="#003280" stroke="#003280"></path><path d="M340.3 600L388.1 600L423.1 528Z" fill="#352fd0" stroke="#352fd0"></path><path d="M457.9 515L536.7 497L518.9 422Z" fill="#1f33bd" stroke="#1f33bd"></path><path d="M518.9 422L578.7 322L524.9 315Z" fill="#1f33bd" stroke="#1f33bd"></path><path d="M489.9 600L536.7 497L457.9 515Z" fill="#1f33bd" stroke="#1f33bd"></path><path d="M536.7 497L577.7 442L518.9 422Z" fill="#2b6ad0" stroke="#2b6ad0"></path><path d="M604.7 368L578.7 322L518.9 422Z" fill="#0a1824" stroke="#0a1824"></path><path d="M524.9 315L528.9 203L376.1 259Z" fill="#00203a" stroke="#00203a"></path><path d="M376.1 259L291.3 237L366.3 280Z" fill="#352fd0" stroke="#352fd0"></path><path d="M577.7 442L604.7 368L518.9 422Z" fill="#4d26e2" stroke="#4d26e2"></path><path d="M291.3 237L206.5 338L281.5 380Z" fill="#2b6ad0" stroke="#2b6ad0"></path><path d="M281.5 380L219.5 476L311.3 403Z" fill="#0a1824" stroke="#0a1824"></path><path d="M196.6 368L219.5 476L281.5 380Z" fill="#352fd0" stroke="#352fd0"></path><path d="M206.5 338L196.6 368L281.5 380Z" fill="#002751" stroke="#002751"></path><path d="M219.5 476L221.5 488L290.3 510Z" fill="#003280" stroke="#003280"></path><path d="M117.8 516L221.5 488L219.5 476Z" fill="#0934aa" stroke="#0934aa"></path><path d="M541.7 189L528.9 203L578.7 322Z" fill="#4d26e2" stroke="#4d26e2"></path><path d="M578.7 322L528.9 203L524.9 315Z" fill="#00203a" stroke="#00203a"></path><path d="M376.1 259L305.3 178L291.3 237Z" fill="#002751" stroke="#002751"></path><path d="M340.3 600L331.3 481L290.3 510Z" fill="#002751" stroke="#002751"></path><path d="M340.3 600L423.1 528L331.3 481Z" fill="#4d26e2" stroke="#4d26e2"></path><path d="M423.1 528L489.9 600L457.9 515Z" fill="#0a1824" stroke="#0a1824"></path><path d="M577.7 442L629.5 382L604.7 368Z" fill="#002751" stroke="#002751"></path><path d="M604.7 368L640.5 324L578.7 322Z" fill="#003280" stroke="#003280"></path><path d="M686.5 429L629.5 382L577.7 442Z" fill="#1f33bd" stroke="#1f33bd"></path><path d="M398.1 111L305.3 178L376.1 259Z" fill="#003280" stroke="#003280"></path><path d="M291.3 237L219.5 225L206.5 338Z" fill="#352fd0" stroke="#352fd0"></path><path d="M283.5 600L340.3 600L290.3 510Z" fill="#0a1824" stroke="#0a1824"></path><path d="M388.1 600L489.9 600L423.1 528Z" fill="#2b6ad0" stroke="#2b6ad0"></path><path d="M662.5 549L686.5 429L577.7 442Z" fill="#003280" stroke="#003280"></path><path d="M688.5 259L541.7 189L578.7 322Z" fill="#1f33bd" stroke="#1f33bd"></path><path d="M528.9 203L398.1 111L376.1 259Z" fill="#002751" stroke="#002751"></path><path d="M629.5 382L640.5 324L604.7 368Z" fill="#2b6ad0" stroke="#2b6ad0"></path><path d="M305.3 178L219.5 225L291.3 237Z" fill="#352fd0" stroke="#352fd0"></path><path d="M114.8 397L134.6 429L196.6 368Z" fill="#4d26e2" stroke="#4d26e2"></path><path d="M221.5 488L283.5 600L290.3 510Z" fill="#003495" stroke="#003495"></path><path d="M489.9 600L543.7 600L536.7 497Z" fill="#352fd0" stroke="#352fd0"></path><path d="M688.5 259L554.7 170L541.7 189Z" fill="#002d69" stroke="#002d69"></path><path d="M407.1 98L398.1 111L485.9 95Z" fill="#0a1824" stroke="#0a1824"></path><path d="M398.1 111L528.9 203L485.9 95Z" fill="#2b6ad0" stroke="#2b6ad0"></path><path d="M210.5 113L156.6 184L219.5 225Z" fill="#352fd0" stroke="#352fd0"></path><path d="M114.8 397L196.6 368L206.5 338Z" fill="#003280" stroke="#003280"></path><path d="M196.6 368L134.6 429L219.5 476Z" fill="#352fd0" stroke="#352fd0"></path><path d="M221.5 488L172.6 561L283.5 600Z" fill="#00203a" stroke="#00203a"></path><path d="M523.9 120L528.9 203L541.7 189Z" fill="#0934aa" stroke="#0934aa"></path><path d="M398.1 111L322.3 67L305.3 178Z" fill="#1f33bd" stroke="#1f33bd"></path><path d="M662.5 549L577.7 442L536.7 497Z" fill="#1f33bd" stroke="#1f33bd"></path><path d="M629.5 382L686.5 429L640.5 324Z" fill="#1f33bd" stroke="#1f33bd"></path><path d="M554.7 170L523.9 120L541.7 189Z" fill="#00203a" stroke="#00203a"></path><path d="M137.6 260L114.8 397L206.5 338Z" fill="#002d69" stroke="#002d69"></path><path d="M117.8 516L219.5 476L134.6 429Z" fill="#4d26e2" stroke="#4d26e2"></path><path d="M117.8 516L172.6 561L221.5 488Z" fill="#00203a" stroke="#00203a"></path><path d="M156.6 184L137.6 260L219.5 225Z" fill="#003495" stroke="#003495"></path><path d="M219.5 225L137.6 260L206.5 338Z" fill="#2b6ad0" stroke="#2b6ad0"></path><path d="M523.9 120L485.9 95L528.9 203Z" fill="#2b6ad0" stroke="#2b6ad0"></path><path d="M543.7 600L662.5 549L536.7 497Z" fill="#352fd0" stroke="#352fd0"></path><path d="M721.4 281L688.5 259L640.5 324Z" fill="#1f33bd" stroke="#1f33bd"></path><path d="M640.5 324L688.5 259L578.7 322Z" fill="#2b6ad0" stroke="#2b6ad0"></path><path d="M554.7 170L546.7 94L523.9 120Z" fill="#352fd0" stroke="#352fd0"></path><path d="M88.8 457L117.8 516L134.6 429Z" fill="#1f33bd" stroke="#1f33bd"></path><path d="M210.5 113L219.5 225L305.3 178Z" fill="#2b6ad0" stroke="#2b6ad0"></path><path d="M655.5 76L546.7 94L554.7 170Z" fill="#2b6ad0" stroke="#2b6ad0"></path><path d="M523.9 120L546.7 94L485.9 95Z" fill="#0a1824" stroke="#0a1824"></path><path d="M761.4 510L723.4 427L686.5 429Z" fill="#002751" stroke="#002751"></path><path d="M686.5 429L758.4 369L640.5 324Z" fill="#002751" stroke="#002751"></path><path d="M0 406L88.8 457L114.8 397Z" fill="#003280" stroke="#003280"></path><path d="M114.8 397L88.8 457L134.6 429Z" fill="#2b6ad0" stroke="#2b6ad0"></path><path d="M432.1 0L322.3 67L407.1 98Z" fill="#002d69" stroke="#002d69"></path><path d="M407.1 98L322.3 67L398.1 111Z" fill="#0a1824" stroke="#0a1824"></path><path d="M432.1 0L407.1 98L485.9 95Z" fill="#4d26e2" stroke="#4d26e2"></path><path d="M108.8 600L160.6 600L172.6 561Z" fill="#2b6ad0" stroke="#2b6ad0"></path><path d="M172.6 561L160.6 600L283.5 600Z" fill="#002d69" stroke="#002d69"></path><path d="M322.3 67L267.5 83L305.3 178Z" fill="#003280" stroke="#003280"></path><path d="M758.4 369L721.4 281L640.5 324Z" fill="#003495" stroke="#003495"></path><path d="M688.5 259L716.4 187L554.7 170Z" fill="#002751" stroke="#002751"></path><path d="M267.5 83L210.5 113L305.3 178Z" fill="#1f33bd" stroke="#1f33bd"></path><path d="M97.8 187L127.6 198L156.6 184Z" fill="#0a1824" stroke="#0a1824"></path><path d="M156.6 184L127.6 198L137.6 260Z" fill="#003280" stroke="#003280"></path><path d="M137.6 260L88.8 276L114.8 397Z" fill="#003495" stroke="#003495"></path><path d="M127.6 198L88.8 276L137.6 260Z" fill="#2b6ad0" stroke="#2b6ad0"></path><path d="M543.7 600L682.5 600L662.5 549Z" fill="#002d69" stroke="#002d69"></path><path d="M662.5 549L761.4 510L686.5 429Z" fill="#352fd0" stroke="#352fd0"></path><path d="M834.2 427L758.4 369L723.4 427Z" fill="#0934aa" stroke="#0934aa"></path><path d="M723.4 427L758.4 369L686.5 429Z" fill="#0a1824" stroke="#0a1824"></path><path d="M108.8 112L97.8 187L156.6 184Z" fill="#1f33bd" stroke="#1f33bd"></path><path d="M127.6 198L97.8 187L88.8 276Z" fill="#0934aa" stroke="#0934aa"></path><path d="M809.2 267L744.4 242L721.4 281Z" fill="#003495" stroke="#003495"></path><path d="M721.4 281L744.4 242L688.5 259Z" fill="#00203a" stroke="#00203a"></path><path d="M744.4 242L716.4 187L688.5 259Z" fill="#00203a" stroke="#00203a"></path><path d="M117.8 516L108.8 600L172.6 561Z" fill="#00203a" stroke="#00203a"></path><path d="M0 600L108.8 600L117.8 516Z" fill="#4d26e2" stroke="#4d26e2"></path><path d="M731.4 600L761.4 510L662.5 549Z" fill="#1f33bd" stroke="#1f33bd"></path><path d="M716.4 187L677.5 113L554.7 170Z" fill="#2b6ad0" stroke="#2b6ad0"></path><path d="M516.9 0L432.1 0L485.9 95Z" fill="#003280" stroke="#003280"></path><path d="M322.3 67L288.3 0L267.5 83Z" fill="#2b6ad0" stroke="#2b6ad0"></path><path d="M516.9 0L485.9 95L546.7 94Z" fill="#00203a" stroke="#00203a"></path><path d="M682.5 600L731.4 600L662.5 549Z" fill="#0934aa" stroke="#0934aa"></path><path d="M677.5 113L655.5 76L554.7 170Z" fill="#352fd0" stroke="#352fd0"></path><path d="M589.7 0L516.9 0L546.7 94Z" fill="#002d69" stroke="#002d69"></path><path d="M432.1 0L288.3 0L322.3 67Z" fill="#003495" stroke="#003495"></path><path d="M172.6 0L129.6 64L210.5 113Z" fill="#002751" stroke="#002751"></path><path d="M210.5 113L108.8 112L156.6 184Z" fill="#352fd0" stroke="#352fd0"></path><path d="M129.6 64L108.8 112L210.5 113Z" fill="#2b6ad0" stroke="#2b6ad0"></path><path d="M129.6 64L106.8 112L108.8 112Z" fill="#003280" stroke="#003280"></path><path d="M108.8 112L106.8 112L97.8 187Z" fill="#0934aa" stroke="#0934aa"></path><path d="M0 330L0 406L114.8 397Z" fill="#002d69" stroke="#002d69"></path><path d="M88.8 457L0 488L117.8 516Z" fill="#0934aa" stroke="#0934aa"></path><path d="M0 330L114.8 397L88.8 276Z" fill="#00203a" stroke="#00203a"></path><path d="M0 330L88.8 276L0 211Z" fill="#002751" stroke="#002751"></path><path d="M0 211L88.8 276L97.8 187Z" fill="#003280" stroke="#003280"></path><path d="M731.4 600L780.2 549L761.4 510Z" fill="#002751" stroke="#002751"></path><path d="M761.4 510L834.2 427L723.4 427Z" fill="#002d69" stroke="#002d69"></path><path d="M758.4 369L809.2 267L721.4 281Z" fill="#4d26e2" stroke="#4d26e2"></path><path d="M0 406L0 483L88.8 457Z" fill="#00203a" stroke="#00203a"></path><path d="M0 483L0 488L88.8 457Z" fill="#2b6ad0" stroke="#2b6ad0"></path><path d="M716.4 187L735.4 61L677.5 113Z" fill="#0934aa" stroke="#0934aa"></path><path d="M735.4 61L649.5 0L655.5 76Z" fill="#002d69" stroke="#002d69"></path><path d="M744.4 242L855.2 172L716.4 187Z" fill="#352fd0" stroke="#352fd0"></path><path d="M853.2 390L809.2 267L758.4 369Z" fill="#002d69" stroke="#002d69"></path><path d="M218.5 0L210.5 113L267.5 83Z" fill="#2b6ad0" stroke="#2b6ad0"></path><path d="M0 167L0 211L97.8 187Z" fill="#352fd0" stroke="#352fd0"></path><path d="M655.5 76L589.7 0L546.7 94Z" fill="#0934aa" stroke="#0934aa"></path><path d="M288.3 0L218.5 0L267.5 83Z" fill="#0a1824" stroke="#0a1824"></path><path d="M780.2 549L834.2 427L761.4 510Z" fill="#352fd0" stroke="#352fd0"></path><path d="M853.2 390L820.2 260L809.2 267Z" fill="#4d26e2" stroke="#4d26e2"></path><path d="M809.2 267L820.2 260L744.4 242Z" fill="#002d69" stroke="#002d69"></path><path d="M655.5 76L649.5 0L589.7 0Z" fill="#003495" stroke="#003495"></path><path d="M731.4 600L784.2 600L780.2 549Z" fill="#002d69" stroke="#002d69"></path><path d="M900 560L900 420L834.2 427Z" fill="#003495" stroke="#003495"></path><path d="M0 167L97.8 187L106.8 112Z" fill="#0934aa" stroke="#0934aa"></path><path d="M218.5 0L172.6 0L210.5 113Z" fill="#1f33bd" stroke="#1f33bd"></path><path d="M0 81L0 167L106.8 112Z" fill="#1f33bd" stroke="#1f33bd"></path><path d="M900 375L853.2 390L900 420Z" fill="#003280" stroke="#003280"></path><path d="M834.2 427L853.2 390L758.4 369Z" fill="#2b6ad0" stroke="#2b6ad0"></path><path d="M735.4 61L655.5 76L677.5 113Z" fill="#003280" stroke="#003280"></path><path d="M0 81L106.8 112L73.8 0Z" fill="#002751" stroke="#002751"></path><path d="M0 488L0 600L117.8 516Z" fill="#2b6ad0" stroke="#2b6ad0"></path><path d="M855.2 172L735.4 61L716.4 187Z" fill="#002d69" stroke="#002d69"></path><path d="M900 420L853.2 390L834.2 427Z" fill="#4d26e2" stroke="#4d26e2"></path><path d="M853.2 390L900 375L820.2 260Z" fill="#352fd0" stroke="#352fd0"></path><path d="M820.2 260L855.2 172L744.4 242Z" fill="#352fd0" stroke="#352fd0"></path><path d="M900 560L834.2 427L780.2 549Z" fill="#002d69" stroke="#002d69"></path><path d="M900 202L855.2 172L820.2 260Z" fill="#003495" stroke="#003495"></path><path d="M73.8 0L106.8 112L129.6 64Z" fill="#002d69" stroke="#002d69"></path><path d="M172.6 0L73.8 0L129.6 64Z" fill="#003495" stroke="#003495"></path><path d="M900 375L900 262L820.2 260Z" fill="#002d69" stroke="#002d69"></path><path d="M784.2 600L900 560L780.2 549Z" fill="#002d69" stroke="#002d69"></path><path d="M900 262L900 202L820.2 260Z" fill="#1f33bd" stroke="#1f33bd"></path><path d="M796.2 0L775.4 0L735.4 61Z" fill="#003495" stroke="#003495"></path><path d="M796.2 0L735.4 61L850.2 50Z" fill="#002751" stroke="#002751"></path><path d="M735.4 61L775.4 0L649.5 0Z" fill="#4d26e2" stroke="#4d26e2"></path><path d="M784.2 600L900 600L900 560Z" fill="#002751" stroke="#002751"></path><path d="M850.2 50L735.4 61L855.2 172Z" fill="#0934aa" stroke="#0934aa"></path><path d="M900 126L850.2 50L855.2 172Z" fill="#002751" stroke="#002751"></path><path d="M73.8 0L0 0L0 81Z" fill="#003280" stroke="#003280"></path><path d="M900 202L900 126L855.2 172Z" fill="#2b6ad0" stroke="#2b6ad0"></path><path d="M900 126L900 89L850.2 50Z" fill="#0a1824" stroke="#0a1824"></path><path d="M850.2 50L900 0L796.2 0Z" fill="#352fd0" stroke="#352fd0"></path><path d="M900 89L900 0L850.2 50Z" fill="#003280" stroke="#003280"></path></g></svg>
