<svg id="visual" viewBox="0 0 900 600" width="900" height="600" xmlns="http://www.w3.org/2000/svg" xmlns:xlink="http://www.w3.org/1999/xlink" version="1.1"><g stroke-width="1" stroke-linejoin="bevel"><path d="M412 313L336 318L370 391Z" fill="#8a4cf7" stroke="#8a4cf7"></path><path d="M336 318L261 388L370 391Z" fill="#6010e5" stroke="#6010e5"></path><path d="M380 533L491 412L370 391Z" fill="#732af4" stroke="#732af4"></path><path d="M370 391L491 412L412 313Z" fill="#550fcb" stroke="#550fcb"></path><path d="M528 315L434 212L412 313Z" fill="#2b6ad0" stroke="#2b6ad0"></path><path d="M412 313L434 212L336 318Z" fill="#4f0fbe" stroke="#4f0fbe"></path><path d="M206 325L230 377L261 388Z" fill="#4a0eb1" stroke="#4a0eb1"></path><path d="M261 388L288 463L370 391Z" fill="#8a4cf7" stroke="#8a4cf7"></path><path d="M206 325L261 388L336 318Z" fill="#7f3cf6" stroke="#7f3cf6"></path><path d="M261 388L230 377L288 463Z" fill="#550fcb" stroke="#550fcb"></path><path d="M434 212L290 217L336 318Z" fill="#732af4" stroke="#732af4"></path><path d="M491 412L528 315L412 313Z" fill="#5b10d8" stroke="#5b10d8"></path><path d="M290 217L206 325L336 318Z" fill="#2b6ad0" stroke="#2b6ad0"></path><path d="M288 463L380 533L370 391Z" fill="#945af9" stroke="#945af9"></path><path d="M380 533L512 479L491 412Z" fill="#4a0eb1" stroke="#4a0eb1"></path><path d="M491 412L582 360L528 315Z" fill="#945af9" stroke="#945af9"></path><path d="M582 360L565 262L528 315Z" fill="#4f0fbe" stroke="#4f0fbe"></path><path d="M528 315L537 209L434 212Z" fill="#8a4cf7" stroke="#8a4cf7"></path><path d="M512 479L582 360L491 412Z" fill="#5b10d8" stroke="#5b10d8"></path><path d="M290 217L211 214L206 325Z" fill="#4f0fbe" stroke="#4f0fbe"></path><path d="M213 89L211 214L290 217Z" fill="#4a0eb1" stroke="#4a0eb1"></path><path d="M565 262L537 209L528 315Z" fill="#7f3cf6" stroke="#7f3cf6"></path><path d="M434 212L318 65L290 217Z" fill="#9e68fa" stroke="#9e68fa"></path><path d="M230 377L237 524L288 463Z" fill="#8a4cf7" stroke="#8a4cf7"></path><path d="M288 463L329 600L380 533Z" fill="#945af9" stroke="#945af9"></path><path d="M129 493L237 524L230 377Z" fill="#4f0fbe" stroke="#4f0fbe"></path><path d="M675 337L586 236L565 262Z" fill="#732af4" stroke="#732af4"></path><path d="M565 262L586 236L537 209Z" fill="#2b6ad0" stroke="#2b6ad0"></path><path d="M132 226L136 339L206 325Z" fill="#550fcb" stroke="#550fcb"></path><path d="M206 325L136 339L230 377Z" fill="#7f3cf6" stroke="#7f3cf6"></path><path d="M329 600L422 600L380 533Z" fill="#945af9" stroke="#945af9"></path><path d="M380 533L422 600L512 479Z" fill="#2b6ad0" stroke="#2b6ad0"></path><path d="M237 524L329 600L288 463Z" fill="#7f3cf6" stroke="#7f3cf6"></path><path d="M516 112L434 212L537 209Z" fill="#2b6ad0" stroke="#2b6ad0"></path><path d="M516 112L436 86L434 212Z" fill="#4a0eb1" stroke="#4a0eb1"></path><path d="M213 89L132 226L211 214Z" fill="#4f0fbe" stroke="#4f0fbe"></path><path d="M211 214L132 226L206 325Z" fill="#4a0eb1" stroke="#4a0eb1"></path><path d="M565 84L516 112L537 209Z" fill="#9e68fa" stroke="#9e68fa"></path><path d="M436 86L318 65L434 212Z" fill="#945af9" stroke="#945af9"></path><path d="M85 383L129 493L136 339Z" fill="#4a0eb1" stroke="#4a0eb1"></path><path d="M136 339L129 493L230 377Z" fill="#9e68fa" stroke="#9e68fa"></path><path d="M237 524L238 600L329 600Z" fill="#4a0eb1" stroke="#4a0eb1"></path><path d="M100 600L238 600L237 524Z" fill="#550fcb" stroke="#550fcb"></path><path d="M422 600L514 600L512 479Z" fill="#732af4" stroke="#732af4"></path><path d="M693 369L675 337L582 360Z" fill="#5b10d8" stroke="#5b10d8"></path><path d="M0 371L85 383L0 295Z" fill="#7f3cf6" stroke="#7f3cf6"></path><path d="M693 369L582 360L693 511Z" fill="#550fcb" stroke="#550fcb"></path><path d="M582 360L675 337L565 262Z" fill="#550fcb" stroke="#550fcb"></path><path d="M674 135L565 84L537 209Z" fill="#550fcb" stroke="#550fcb"></path><path d="M318 65L213 89L290 217Z" fill="#6010e5" stroke="#6010e5"></path><path d="M637 534L582 360L512 479Z" fill="#4a0eb1" stroke="#4a0eb1"></path><path d="M674 135L586 236L718 162Z" fill="#4f0fbe" stroke="#4f0fbe"></path><path d="M674 135L537 209L586 236Z" fill="#4f0fbe" stroke="#4f0fbe"></path><path d="M516 112L536 0L436 86Z" fill="#945af9" stroke="#945af9"></path><path d="M436 86L375 0L318 65Z" fill="#7f3cf6" stroke="#7f3cf6"></path><path d="M593 600L637 534L512 479Z" fill="#4f0fbe" stroke="#4f0fbe"></path><path d="M514 600L593 600L512 479Z" fill="#5b10d8" stroke="#5b10d8"></path><path d="M536 0L375 0L436 86Z" fill="#732af4" stroke="#732af4"></path><path d="M318 65L268 0L213 89Z" fill="#9e68fa" stroke="#9e68fa"></path><path d="M661 600L693 511L637 534Z" fill="#7f3cf6" stroke="#7f3cf6"></path><path d="M637 534L693 511L582 360Z" fill="#7f3cf6" stroke="#7f3cf6"></path><path d="M375 0L268 0L318 65Z" fill="#945af9" stroke="#945af9"></path><path d="M718 162L586 236L675 337Z" fill="#5b10d8" stroke="#5b10d8"></path><path d="M268 0L232 0L213 89Z" fill="#7f3cf6" stroke="#7f3cf6"></path><path d="M213 89L88 101L132 226Z" fill="#550fcb" stroke="#550fcb"></path><path d="M129 493L100 600L237 524Z" fill="#6010e5" stroke="#6010e5"></path><path d="M0 496L100 600L129 493Z" fill="#6010e5" stroke="#6010e5"></path><path d="M96 0L88 101L213 89Z" fill="#945af9" stroke="#945af9"></path><path d="M0 295L85 383L136 339Z" fill="#945af9" stroke="#945af9"></path><path d="M0 295L136 339L132 226Z" fill="#2b6ad0" stroke="#2b6ad0"></path><path d="M85 383L0 496L129 493Z" fill="#8a4cf7" stroke="#8a4cf7"></path><path d="M0 176L0 295L132 226Z" fill="#8a4cf7" stroke="#8a4cf7"></path><path d="M565 84L536 0L516 112Z" fill="#9e68fa" stroke="#9e68fa"></path><path d="M630 0L536 0L565 84Z" fill="#9e68fa" stroke="#9e68fa"></path><path d="M593 600L661 600L637 534Z" fill="#5b10d8" stroke="#5b10d8"></path><path d="M785 221L718 162L675 337Z" fill="#732af4" stroke="#732af4"></path><path d="M674 135L630 0L565 84Z" fill="#4f0fbe" stroke="#4f0fbe"></path><path d="M785 221L675 337L806 331Z" fill="#550fcb" stroke="#550fcb"></path><path d="M0 371L0 496L85 383Z" fill="#6010e5" stroke="#6010e5"></path><path d="M822 600L769 461L693 511Z" fill="#4a0eb1" stroke="#4a0eb1"></path><path d="M693 511L769 461L693 369Z" fill="#4a0eb1" stroke="#4a0eb1"></path><path d="M88 101L0 176L132 226Z" fill="#945af9" stroke="#945af9"></path><path d="M806 331L675 337L693 369Z" fill="#8a4cf7" stroke="#8a4cf7"></path><path d="M679 0L630 0L674 135Z" fill="#550fcb" stroke="#550fcb"></path><path d="M769 461L800 395L693 369Z" fill="#7f3cf6" stroke="#7f3cf6"></path><path d="M679 0L674 135L793 73Z" fill="#550fcb" stroke="#550fcb"></path><path d="M800 395L806 331L693 369Z" fill="#4a0eb1" stroke="#4a0eb1"></path><path d="M88 101L0 115L0 176Z" fill="#4f0fbe" stroke="#4f0fbe"></path><path d="M0 0L0 115L88 101Z" fill="#5b10d8" stroke="#5b10d8"></path><path d="M232 0L96 0L213 89Z" fill="#8a4cf7" stroke="#8a4cf7"></path><path d="M0 496L0 600L100 600Z" fill="#550fcb" stroke="#550fcb"></path><path d="M793 73L674 135L718 162Z" fill="#945af9" stroke="#945af9"></path><path d="M900 179L793 73L785 221Z" fill="#7f3cf6" stroke="#7f3cf6"></path><path d="M785 221L793 73L718 162Z" fill="#7f3cf6" stroke="#7f3cf6"></path><path d="M96 0L0 0L88 101Z" fill="#4f0fbe" stroke="#4f0fbe"></path><path d="M661 600L822 600L693 511Z" fill="#732af4" stroke="#732af4"></path><path d="M769 461L900 392L800 395Z" fill="#2b6ad0" stroke="#2b6ad0"></path><path d="M800 395L900 392L806 331Z" fill="#6010e5" stroke="#6010e5"></path><path d="M806 331L900 288L785 221Z" fill="#945af9" stroke="#945af9"></path><path d="M793 73L768 0L679 0Z" fill="#8a4cf7" stroke="#8a4cf7"></path><path d="M900 534L900 392L769 461Z" fill="#5b10d8" stroke="#5b10d8"></path><path d="M900 392L900 288L806 331Z" fill="#2b6ad0" stroke="#2b6ad0"></path><path d="M793 73L900 0L768 0Z" fill="#8a4cf7" stroke="#8a4cf7"></path><path d="M900 288L900 179L785 221Z" fill="#9e68fa" stroke="#9e68fa"></path><path d="M822 600L900 534L769 461Z" fill="#5b10d8" stroke="#5b10d8"></path><path d="M822 600L900 600L900 534Z" fill="#2b6ad0" stroke="#2b6ad0"></path><path d="M900 179L900 83L793 73Z" fill="#5b10d8" stroke="#5b10d8"></path><path d="M900 83L900 0L793 73Z" fill="#732af4" stroke="#732af4"></path></g></svg>
